<?xml version="1.0" encoding="UTF-8"?>
<svg width="288px" height="284px" viewBox="0 0 288 284" version="1.1" xmlns="http://www.w3.org/2000/svg" xmlns:xlink="http://www.w3.org/1999/xlink">
    <title>image (1)</title>
    <g id="Page-1" stroke="none" stroke-width="1" fill="none" fill-rule="evenodd">
        <g id="image-(1)" transform="translate(0.920000, 0.840000)" fill-rule="nonzero">
            <path d="M273.161196,206.751838 C273.078243,207.105058 272.97315,207.452739 272.846535,207.792832 C272.980738,207.455329 273.086003,207.107083 273.161196,206.751838 L273.161196,206.751838 Z M271.917902,204.784667 C271.917902,204.68516 271.971624,204.56269 272.002323,204.447875 C272.033021,204.33306 272.002323,204.233553 272.002323,204.080466 L271.917902,204.784667 Z" id="Shape" fill="#5984D6"></path>
            <path d="M273.851915,198.921425 C273.383761,200.804398 272.577922,202.335271 272.646994,201.592798 C272.378381,202.985892 272.155816,203.889106 272.002323,204.447875 C272.002323,205.389362 271.956275,205.618992 272.255587,206.047637 C272.076257,207.356774 271.584045,208.60374 270.820425,209.683459 C270.367621,210.242228 270.229477,210.119758 270.820425,208.604194 C270.820425,208.604194 270.628559,209.094073 270.306223,209.767657 C269.983888,210.441241 269.538758,211.29853 269.055254,212.178782 C268.416791,213.293085 267.741041,214.385721 267.029145,215.454849 L268.425932,213.633111 C269.116651,212.706933 269.768997,211.71952 269.768997,211.71952 C269.699925,212.43903 268.625473,214.015829 267.4666,215.447195 C266.307727,216.87856 265.164203,218.317581 264.887915,219.167215 L265.747477,218.133876 C266.35076,217.394871 266.93675,216.641989 267.504973,215.875839 C268.755943,214.214842 269.907141,212.400758 269.907141,212.400758 L269.853419,212.882983 C270.336922,211.964459 271.035316,210.670872 271.695336,209.43852 C272.311672,208.245316 272.800424,206.990749 273.153521,205.695536 C273.200915,205.838936 273.226777,205.98854 273.230268,206.139489 C273.221949,206.345391 273.196276,206.55023 273.153521,206.751838 C273.320963,206.160827 273.436519,205.556403 273.498881,204.945409 C274.86497,199.679207 272.685367,203.835526 274.442864,197.046106 C274.280184,197.681455 274.082908,198.307489 273.851915,198.921425 L273.851915,198.921425 Z M277.5511,191.489038 L277.620172,188.044575 L279.155104,182.640595 C278.91719,182.518125 279.623258,178.484276 278.756022,181.109722 C278.637566,181.926997 278.473586,182.737061 278.264844,183.536155 C277.850412,182.770719 279.700005,176.203276 278.725323,177.672913 C277.881111,182.028246 277.574124,182.648249 277.397607,185.419129 C276.681124,188.308424 275.802266,191.15524 274.7652,193.946089 C274.527285,195.132515 274.841946,195.392764 274.504261,196.893019 C274.581008,196.563881 274.657754,196.257707 274.757525,195.882643 L275.670809,195.966841 C275.896346,194.672975 276.20395,193.394681 276.591768,192.139659 L275.824302,198.760683 C277.244114,196.954254 278.472059,190.570515 279.439066,188.136427 C277.911809,191.083357 279.738378,185.602833 277.5511,191.489038 L277.5511,191.489038 Z M5.38470919,138.344796 C5.38470919,138.344796 5.33866124,138.291216 5.28493863,138.344796 L5.28493863,139.814434 L5.28493863,139.776162 C5.38470919,139.270974 5.38470919,138.788749 5.38470919,138.344796 L5.38470919,138.344796 Z M14.6710452,95.6411051 L12.5528396,102.530032 C12.6372609,101.534965 11.5321101,104.826341 11.7853738,103.295468 C11.6395553,103.823619 10.8644149,106.273015 11.2251238,105.660666 L11.7009526,104.275227 C11.1637265,108.102408 12.0693362,105.989804 10.6802231,112.120949 C11.7661324,109.810343 12.5032094,107.352179 12.8675006,104.826341 L13.4047266,103.027565 L14.5942986,97.1183971 L14.6710452,95.6411051 Z M164.710606,278.77174 L165.017592,278.534454 C164.641534,278.656924 163.183349,278.77174 164.710606,278.77174 Z M286.192765,146.963609 C286.131368,147.285092 286.054621,147.644847 286.000899,147.935713 C286.087103,147.616444 286.151209,147.291644 286.192765,146.963609 Z M78.1481402,20.2456297 L79.49888,19.1893276 L78.1481402,20.2456297 Z M121.11855,1.37762491 C120.163339,1.49940587 119.222484,1.7147686 118.309625,2.0205914 L119.737111,1.6684907 L121.11855,1.37762491 Z M284.135957,123.962248 L284.135957,123.862741 C284.097584,123.709654 284.066885,123.587184 284.028512,123.418788 L284.135957,123.962248 Z M203.459954,15.6606662 C203.820662,15.9056059 204.227419,16.1735086 204.803019,16.4949918 C204.406951,16.1416787 203.952555,15.8594038 203.459954,15.6606662 L203.459954,15.6606662 Z M117.795423,2.15071557 L117.97194,2.15071557 L118.309625,2.03590013 L117.795423,2.15071557 Z M61.5478553,28.9562947 L60.7803895,29.721731 C61.0538123,29.4847655 61.3102615,29.2289945 61.5478553,28.9562947 L61.5478553,28.9562947 Z M23.803888,79.8578086 L22.8215318,82.207698 C23.1919185,81.4429502 23.5198656,80.6584698 23.803888,79.8578086 Z M59.805708,32.8064393 C59.7212867,32.9289091 59.6368655,33.0437246 59.5831429,33.1355769 C59.8747799,32.8753286 59.9285025,32.7681675 59.805708,32.8064393 Z M281.204238,162.433077 L281.204238,162.279989 L281.112142,162.203446 L281.204238,162.433077 Z M281.357731,168.686691 C281.242611,169.398547 281.119816,170.14102 280.997022,170.868185 C281.165864,170.064476 281.288659,169.276077 281.357731,168.686691 Z M234.895352,35.8758389 C235.378856,36.3657181 236.50703,37.5138726 235.839335,37.1541175 C236.959835,37.8277015 237.197749,37.3914028 234.895352,35.8758389 Z M280.858878,174.641785 C281.449827,175.093393 280.02234,179.793172 279.676981,181.928739 C280.191183,180.436138 279.914895,182.786028 280.25258,182.380346 C280.426238,181.008843 280.682524,179.649009 281.020046,178.308225 C281.495875,177.581061 281.089118,180.252434 280.490494,182.28084 C281.442152,179.831444 280.229556,185.602833 281.357731,182.097135 C282.93871,174.381537 283.813621,168.862741 283.828971,163.252093 C283.289529,167.607998 282.45362,171.92226 281.327032,176.165004 L281.096792,174.534624 C282.455207,170.592627 282.631724,168.005453 283.39919,164.002221 C283.39919,164.002221 282.892662,166.237295 282.39381,168.472369 C281.894957,170.707443 281.327032,172.927208 281.327032,172.927208 C279.960943,177.014638 280.459796,174.190178 281.050744,170.868185 C280.954557,171.461079 280.784394,172.039647 280.544217,172.590416 C280.643988,173.026715 278.978587,182.525779 280.858878,174.641785 L280.858878,174.641785 Z M34.9551659,57.1013875 C34.9027836,57.1133511 34.8548804,57.1398937 34.817022,57.1779311 C34.6481796,57.5606492 34.7709741,57.3692902 34.9551659,57.1013875 Z M230.912205,29.8135834 L232.784821,31.1148251 C232.185548,30.6464349 231.560357,30.2120028 230.912205,29.8135834 L230.912205,29.8135834 Z M258.60237,63.4927805 L257.589315,62.2221563 L257.336052,62.0154885 C257.715937,62.5424154 258.139533,63.0365836 258.60237,63.4927805 L258.60237,63.4927805 Z M154.948441,7.73840055 C154.436032,7.7075624 153.921813,7.72807677 153.41351,7.79963545 C153.925872,7.83435703 154.440496,7.81382652 154.948441,7.73840055 L154.948441,7.73840055 Z M285.440649,149.77276 L285.440649,150.147824 L285.440649,149.77276 Z" id="Shape" fill="#5984D6"></path>
            <path d="M286.277186,136.423551 C286.008573,133.361806 285.947176,131.241547 286.277186,131.325745 C286.146717,129.955614 286.062296,129.504007 285.954851,128.838077 C285.908803,128.516594 285.85508,128.14153 285.816707,127.605725 L285.816707,125.906456 C285.827251,125.491683 285.801572,125.076781 285.73996,124.66645 C284.926447,122.370141 284.972495,124.911389 283.713851,119.591607 C283.713851,119.591607 283.851995,120.655563 283.997813,121.711865 L284.182005,123.862741 C284.297125,124.314349 284.396895,124.735339 284.50434,125.163983 C284.571449,125.45576 284.612541,125.752888 284.627135,126.051889 C284.627135,126.250903 284.673183,126.45757 284.696207,126.679547 L284.696207,126.028926 C284.676685,125.406957 284.607393,124.787536 284.488991,124.17657 C284.327823,123.066688 284.158981,121.956805 284.158981,121.956805 C284.757604,124.773611 284.926447,124.130644 285.471347,125.079785 C285.532745,126.679547 285.578793,127.988443 285.62484,129.113634 C285.670888,130.238826 285.678563,131.019571 285.701587,131.800316 C285.701587,133.407732 285.701587,134.686011 285.878104,136.392934 C285.19506,134.379836 284.765279,131.080806 284.427594,132.397356 C284.438406,131.290162 284.29111,130.187071 283.990138,129.121289 C283.870062,128.645589 283.782877,128.162227 283.7292,127.674614 C283.699925,127.371905 283.687115,127.067836 283.690827,126.763745 L283.690827,126.204976 C283.690827,126.005963 283.736875,125.584973 283.690827,125.271144 C283.774997,125.601647 283.841604,125.936354 283.890368,126.273866 C283.854817,125.809219 283.78037,125.348352 283.667803,124.89608 C283.606405,124.574597 283.545008,124.283731 283.49896,124.023483 C283.406864,123.495332 283.360816,123.059033 283.314768,122.638043 C283.239796,121.656723 283.027982,120.690625 282.685447,119.767657 C282.831265,119.943708 282.831265,119.583953 282.831265,119.239506 C281.37308,113.697747 282.931036,120.961738 281.127491,115.52714 C279.92257,110.643657 281.564946,113.713056 281.457501,112.304653 C282.95406,116.307885 283.061505,116.277268 283.307094,116.254305 C283.552683,116.231342 283.821296,116.292576 284.980169,120.915812 C285.686238,120.778033 285.187385,116.981469 283.736875,112.15922 C284.304799,115.381707 282.201943,110.444643 282.800566,114.738741 C282.093119,112.429857 281.11961,110.210579 279.899546,108.125371 C278.712868,105.848112 277.810755,103.434271 277.213415,100.937924 L277.382258,101.083357 L275.724532,98.190008 L274.389141,93.8806016 C276.108265,96.1769105 276.998525,99.5524846 278.172748,101.534965 C276.967826,96.0620951 274.818922,94.8680144 272.654669,88.997118 C271.61859,83.830423 275.379172,94.753199 276.085241,94.4929506 C275.44057,93.3677593 274.550309,90.0534201 274.911018,90.3519403 C276.768285,95.9472796 276.645491,93.4978835 278.617878,99.8663135 C277.236439,96.9193837 278.57183,100.417428 278.057628,99.9581658 C278.617878,100.723602 280.920275,106.617462 282.056125,111.041683 C282.869638,111.883663 281.37308,107.114995 280.636313,104.390042 C278.333916,99.5142128 277.297837,94.1025781 275.264052,90.6121886 C273.222593,85.4454936 275.594063,90.0381114 275.54034,89.7013194 C274.005408,84.9632687 274.358443,87.8413092 273.675398,86.402289 C270.759028,79.5133623 271.495795,78.4417515 270.122032,73.5123417 C269.857784,72.948131 269.629645,72.3677882 269.438987,71.7748013 C269.385264,71.6064053 269.323867,71.4380093 269.270145,71.261959 C269.216422,71.0859086 269.101302,70.672573 269.009206,70.3663985 C268.80199,69.7157777 268.679196,69.0115763 268.395234,68.3379923 L264.020679,62.6354919 L259.776593,57.2774378 C258.295384,55.5552061 256.844874,53.886555 255.532507,52.3709911 C256.36137,52.9221053 255.816469,51.988273 255.647627,51.483085 C253.621517,50.0976453 252.992195,49.6536923 252.286127,49.0643063 C251.580058,48.4749204 250.812592,47.7401015 248.448798,45.9336719 L250.137223,47.7936821 C250.687028,48.4213737 251.221846,49.0619684 251.741226,49.7149272 C250.387545,48.4309372 248.968409,47.2173866 247.489466,46.0791048 C246.11962,44.9495372 244.836892,43.7188167 243.652137,42.3973562 C246.722,46.2704638 238.387321,38.6237552 235.816311,37.1464631 C232.792496,34.4062012 229.093311,32.5538454 227.550705,30.8851942 L228.034208,31.1607513 L225.647389,29.4691371 C225.098918,29.0744232 224.538403,28.6966293 223.966639,28.3362913 L223.199174,27.8387578 L224.2813,27.4713483 C222.67644,26.3079522 220.965079,25.2982027 219.169978,24.4555293 C217.711793,23.8125628 216.813858,23.5676232 217.358759,24.026885 C213.73632,21.7305761 215.984995,22.8787305 215.639636,22.2204553 C216.76781,22.6950258 218.56368,23.3992272 220.190708,24.1723179 C221.817735,24.9454085 223.260571,25.8792408 223.682677,26.5681335 C223.311778,26.240811 222.885637,25.981656 222.424033,25.8026972 C227.105574,28.8644424 227.911413,29.3083954 228.310496,29.0940733 C228.709578,28.8797511 228.510037,28.328637 230.912205,29.7906203 C228.502362,28.1143148 226.959756,26.4533181 224.135482,25.0372609 C223.498485,24.6775058 221.894482,23.7513279 220.067913,22.8404587 C218.241345,21.9295895 216.230584,21.0034116 214.833796,20.4140257 C217.724099,21.6740321 220.41331,23.3503446 222.815441,25.3893616 C220.513043,23.858489 219.91442,24.0804655 218.018779,22.7103346 L218.786245,22.9476198 L216.046392,21.7688479 C215.954297,21.0034116 208.92431,17.826851 213.229793,19.3271061 C209.568981,17.5972201 211.786957,19.0974752 208.417783,17.6278375 L211.61044,19.3424148 L214.780074,21.0799552 L214.41169,21.5085996 C211.894403,20.6360022 211.518344,19.977727 208.916635,18.7071027 L208.862913,19.3806867 C208.862913,19.3806867 207.773111,18.6841396 206.660286,18.0411731 L204.434635,16.7246227 C204.849067,17.3522805 201.326399,15.5764682 200.259621,15.2702937 C197.719309,13.9996695 199.814491,13.7394211 195.086902,12.5070687 L195.393888,12.683119 C192.715433,11.9559546 191.172826,11.4201491 187.442943,10.1035987 C188.060976,10.1631836 188.672329,10.2784699 189.269511,10.448045 C184.119816,8.27420596 175.240237,7.0877797 172.968538,5.68703127 C173.513439,5.30431312 175.716065,6.10802123 175.961654,5.58752455 C180.075271,6.88876626 181.533456,7.20259514 183.260254,7.3556824 C184.987052,7.50876966 186.875018,7.84556163 191.633306,9.6519913 C191.633306,10.3255752 193.713138,10.8843437 195.961813,11.5043471 C198.210488,12.1243505 200.566608,12.9739848 201.234303,13.884854 C197.642563,12.1473136 192.408446,11.1063203 193.030094,11.4737297 C196.600317,12.658483 200.093813,14.0618999 203.490652,15.675975 C201.610361,14.4053507 202.538995,14.0379413 204.21207,14.3288071 C198.640268,12.2085485 188.809032,7.61593074 180.620172,5.38851111 L181.333915,6.36826958 C174.181134,5.00579296 182.393018,5.84777289 176.874939,4.44702447 L174.296254,4.44702447 L173.966243,4.30159157 L171.855713,4.1714674 L169.745182,4.11788686 C172.638528,4.63072918 171.433606,3.8193667 174.518819,4.84505134 C177.258672,5.73295745 174.265555,5.36554802 173.382969,5.61048764 C171.541052,4.90628625 164.641534,3.86529288 168.970041,4.13319558 L165.132712,3.8193667 L161.295383,3.64331635 C161.387479,3.37541365 163.05288,3.49022909 163.851044,3.45961164 L161.103517,3.13047403 C159.737428,2.95442368 158.363664,2.83195388 158.363664,2.83195388 L158.578554,2.74775588 C154.119578,2.57170553 147.926129,2.12775248 144.518581,2.63294044 C148.279164,2.98504114 147.365879,3.16109148 145.616057,3.21467202 C143.866235,3.26825257 141.249177,3.42899419 141.571513,3.63566199 C138.893057,3.53615527 138.010471,2.21960484 143.804838,1.76034306 C145.33977,2.15071557 149.322917,1.83688669 152.246962,1.96701086 C149.626572,1.65779509 146.98404,1.57839578 144.349739,1.72972561 C146.452595,1.41589672 140.427989,1.23984637 140.51241,0.964289307 C140.903817,0.749967143 142.154787,0.122309378 145.984441,0.443792624 C151.679037,0.772930232 146.544691,1.15564838 148.233116,1.12503093 C149.000581,1.53071217 150.949945,1.57663835 153.167921,1.65318198 C155.385897,1.72972561 157.857137,1.85219541 159.560911,2.15071557 C159.90627,2.25787665 158.793445,2.19664175 158.217846,2.19664175 C161.180263,2.45689009 167.31999,3.39837674 167.834192,3.02331295 C167.834192,3.02331295 165.999949,2.73244716 164.150356,2.58701426 L160.458846,2.25787665 C158.877866,1.8751585 162.761243,2.14306121 160.520243,1.49244035 C158.839493,1.34700746 156.805709,1.27046383 154.626106,0.918363129 L155.040537,0.803547684 C152.358325,0.355300275 149.647333,0.0994985752 146.928424,0.0381113854 C143.935307,-0.0307778815 140.85777,-0.0154691555 138.25606,0.160581193 C137.112536,1.30873564 134.418732,1.98997395 132.262153,3.32183311 C124.35722,3.82973428 116.501791,4.92996356 108.76235,6.61320919 C108.938868,6.81222263 108.923518,7.04950788 108.593508,7.32506495 C106.291111,7.58531329 102.292614,8.98606172 102.246566,8.40433013 C100.01324,9.62137385 93.5665278,12.2927465 95.0247128,12.3922532 L94.1805005,12.7596627 C92.2687078,13.0813873 90.3851887,13.5523015 88.5473016,14.1680655 C87.2152925,14.630699 85.8948547,15.1258299 84.5871782,15.6530119 L83.0061987,16.3112871 L82.5840925,16.4873374 L82.2464075,16.8011663 L81.5480137,17.4517872 C80.980089,17.9799382 80.7805479,18.102408 80.4658869,18.4085826 L79.475856,19.2275994 C78.4090786,20.1078511 78.4704759,20.5135324 79.0537499,20.758472 C77.7567327,21.5927976 76.5134381,22.3352708 75.3008422,23.1542876 C76.1388102,22.1106451 77.0855446,21.1587167 78.1251163,20.3145189 C78.1251163,20.3145189 75.9148148,22.0214419 73.5203216,23.5140427 C72.3384242,24.279479 71.1411776,24.976026 70.235568,25.4735596 L69.1841399,25.9864019 L68.5778419,26.3002308 L68.754359,26.1624523 L68.9615748,26.0017106 L69.0843693,25.8868952 L69.383681,25.5730663 L68.7390097,25.9940563 C67.9894774,26.3635961 67.3235214,26.8819287 66.781972,27.5172745 C66.0145062,28.2827108 65.837989,28.5506135 65.5386774,28.8797511 L65.0628486,29.3696304 L66.6591774,27.8387578 C67.0966329,27.4943114 67.4266432,26.9814691 67.9408453,26.7977644 L69.2455371,26.1701066 C70.2739413,25.7184992 70.9876845,25.4965227 70.7190714,25.9710932 L69.9516057,26.4762811 L69.5832221,26.705912 L69.092044,26.9891235 C68.7159857,27.2034456 68.3245782,27.3948047 67.9792186,27.6091269 L67.0889583,28.3975263 L66.4135884,29.0481471 C66.2370713,29.2165431 66.0605541,29.3925934 65.8763623,29.5456807 L64.8019102,30.4871673 C63.2694971,31.7360646 61.8041623,33.0646644 60.4120059,34.4674361 C59.828732,33.6484193 58.5317148,34.4674361 59.3605778,33.0819964 C59.5024871,32.9801375 59.6512103,32.8880706 59.805708,32.8064393 C61.3588676,30.795416 63.0189744,28.8688566 64.7788863,27.0350496 C61.4404101,29.8824727 59.9361772,30.8622311 58.63916,31.8955701 C57.3421428,32.9289091 56.1755948,33.747926 52.4994337,36.4039899 C52.0005809,36.4039899 53.6045844,35.0032415 55.0243961,33.7938522 C56.4442078,32.5844628 57.6875024,31.4975433 56.7818928,31.9491507 C56.7818928,31.9491507 58.4472935,30.816305 59.9592011,29.7064223 C61.4711087,28.5965397 62.8909204,27.463694 62.8909204,27.463694 C62.4040243,27.9383997 61.9549754,28.4502413 61.5478553,28.9945666 C62.3273998,28.2568311 63.0949654,27.506606 63.8502527,26.7441838 L65.2930883,25.3587441 C65.879018,24.7740216 66.5790728,24.3154999 67.3498966,24.0115763 L68.0636398,23.6212037 L68.5394686,23.353301 C68.8541296,23.161942 69.1687906,22.9629285 69.4911262,22.740952 C70.1962012,22.2592388 70.8632854,21.7244237 71.4865372,21.1411901 C73.6584654,20.0695793 68.5701672,23.521697 70.841866,22.1974922 C69.9750998,22.805479 69.1519134,23.4730289 68.3783008,24.195281 L68.1250371,24.4402206 L67.5724617,24.8305931 L66.6054548,25.5424489 C66.1966323,26.0448885 65.8149175,26.5686778 65.4619308,27.1115933 C65.9531089,26.6676402 66.3982391,26.2313415 66.8203453,25.8792408 L68.1787597,25.1750394 C68.3322528,25.0984958 68.4780713,25.0142978 68.6085405,24.9377542 L68.8771536,24.7846669 L69.337633,24.4861468 C69.7310832,24.2147583 70.0871528,23.8930843 70.3967358,23.5293514 C71.204248,22.5128494 72.1647297,21.6272052 73.2440339,20.9039049 L74.9094346,20.0389619 L76.5671607,19.0974752 C78.2555854,17.6431463 75.7996949,19.3117974 75.6001538,19.2429081 C76.3880583,18.5706946 77.2103486,17.9396398 78.063719,17.3522805 L79.0537499,16.6404247 L79.544928,16.2500522 C79.790517,16.0433844 80.1895992,15.6530119 80.5349588,15.3238743 L79.6753971,16.03573 C79.4919648,16.1792342 79.2968655,16.3072495 79.0921231,16.4184482 C78.7774622,16.6021529 78.5241985,16.6940052 78.5779211,16.5026462 L79.0690992,16.1581998 L79.3146882,15.9821495 L79.3760855,15.9362233 L79.5372533,15.7907904 L79.7751677,15.5764682 L80.7191506,14.7421427 C80.8803184,14.6043641 81.0261369,14.4512769 81.1949794,14.3288071 L81.7782534,14.0838675 L85.2011508,12.6448472 C86.9542239,11.8716449 88.7978057,11.3213187 90.6885312,11.0068135 C88.5473016,11.4124948 92.5841716,9.18507515 94.1421272,8.45025631 L90.4275928,9.45297786 L87.8642571,10.1571793 L86.720733,10.532243 L83.5510994,12.0248438 L81.3177739,13.0505285 L80.6577534,13.356703 C80.4568791,13.4914701 80.2738073,13.6509129 80.1128526,13.8312735 L79.0614245,14.8186863 L77.9409245,15.8596797 L77.0046162,16.625116 C76.369365,17.1535551 75.7193197,17.6640482 75.0552531,18.1559886 C73.6566558,19.2001548 72.2259234,20.200806 70.7651194,21.1564989 C69.9976536,21.6540325 69.2301878,22.1592204 68.3783008,22.6873715 L67.7643282,23.0547809 L67.365246,23.2844118 L66.5977802,23.6824387 C65.5386774,24.0957743 64.8095849,25.0449153 63.9730472,25.8256603 L64.5639958,24.8305931 L63.6200129,25.6649187 L63.1672081,26.0399825 L62.3229958,26.7518382 L60.7113176,28.0224625 C59.7136121,28.7878988 58.8156771,29.5533351 58.0405367,30.1809928 C56.7312056,31.2721996 55.4882644,32.4402863 54.3183276,33.6790367 C53.2592248,34.781265 52.2538447,35.898802 50.8186836,37.3148591 C49.3835226,38.7309163 47.4802075,40.4837654 44.8017519,43.2699535 C44.3566217,43.132175 43.1440258,44.4869973 42.0925977,45.8265108 C41.0411695,47.1660243 40.1662585,48.5055378 40.0281147,48.0539304 C40.7911682,47.1331145 41.4789744,46.152767 42.084923,45.1223094 C42.084923,44.9156416 41.5937449,45.2371248 41.0258202,45.6810779 C40.2583544,46.905776 39.7364777,47.9773868 39.0304092,49.3704808 L37.9406078,51.4524676 C37.5492002,52.2179039 37.0580221,52.9833402 36.4056762,53.970753 C36.8891796,52.2944475 34.6021316,55.6470585 36.6973132,51.6744441 C33.4432583,57.0324982 31.9083267,59.9947367 31.0027171,63.1559886 C26.8737512,72.3029523 28.7924156,65.3145189 24.5176312,74.4538283 L24.9167134,72.991845 L22.1998845,78.6790367 L23.4738777,76.9950769 L22.054066,80.4471946 C21.3556722,82.1770806 20.664953,83.9069666 20.664953,83.9069666 C19.1300214,88.2469904 21.9005729,82.4220202 21.9542955,83.1415303 L22.0924393,81.5034967 C23.489227,78.832124 24.970436,74.8518552 25.6074326,74.4691371 C23.4969017,78.8933589 24.410186,78.0284159 23.7731894,79.8884261 L25.6381312,75.6096372 L26.7049087,74.446174 C28.8231143,70.3357811 30.5422376,67.2510728 31.4555219,64.6026632 C30.3580458,66.1871163 30.3426965,67.5266298 29.2682444,68.8967608 C29.6750013,66.5468714 32.3381075,61.4796831 34.8246967,56.5349646 C35.0472618,56.4890384 35.960546,55.004092 35.7226317,55.6929847 C35.5097085,56.1942204 35.2528924,56.675758 34.9551659,57.1320049 C35.446344,56.9176827 34.1032789,59.726834 36.835457,55.2643403 C36.3366043,57.154968 35.2161042,60.9591864 35.4309947,60.9209146 C34.0725802,63.6305591 32.1078678,67.40416 30.8261999,69.4784924 L30.8261999,69.2565159 C29.5215081,71.5528248 27.4416758,76.7577916 26.7970046,76.9108789 C26.1753573,78.4417515 24.3334394,82.4832551 26.6281621,78.5336038 L25.0932305,81.9780672 C24.3257648,83.7002988 23.6120216,85.4301849 23.6120216,85.4301849 C23.2973606,83.8993123 20.1354016,90.2677423 22.6143161,83.1798021 C22.5298948,83.3635069 21.808477,85.0551211 20.6803023,87.8336548 C21.1868297,85.1699365 19.3756104,88.5990911 17.7102097,92.4262726 L17.8023056,93.5361553 C16.1215555,96.6897528 14.9166342,98.5267999 13.4047266,103.058183 C13.4047266,103.058183 12.9212232,105.852025 12.4300451,108.638213 L11.6165314,114.225898 C11.3088383,115.269274 11.0298875,116.320869 10.7799937,117.379496 C10.0815998,118.688392 8.93807577,123.449406 8.89202782,121.443963 C8.52364425,121.857298 8.89202782,120.242228 9.56739771,118.206167 C9.72089087,117.915301 9.61344566,118.435798 9.77461347,118.129624 C9.62879498,117.45604 9.33715798,117.08863 8.23968191,119.515063 C8.81868781,117.978151 9.25791294,116.392412 9.5520484,114.777013 C9.5520484,114.777013 9.32948332,115.412325 9.12994222,116.055291 L8.71551069,117.341224 C9.70554155,113.468116 10.9795348,107.390552 10.5497539,107.390552 C10.7185964,108.745375 9.36018195,111.011066 8.56969219,113.039472 C8.96109974,111.416747 9.72089087,107.941666 8.81528124,110.498224 C8.73086001,111.493291 6.87359281,118.619503 8.68481206,113.713056 C8.19839926,116.23453 7.56805177,118.726252 6.79684623,121.17606 C7.31104831,118.259748 6.55893184,120.066177 6.37474005,119.155308 C5.99868181,121.780755 6.49753457,121.819027 6.58963047,122.285943 C5.4000585,125.852876 4.33328106,128.317581 3.51976733,130.981299 C2.45972093,134.128238 1.75693368,137.383834 1.42458574,140.687031 C1.30946587,141.804568 2.1229796,135.566262 2.39926728,136.43886 C2.25118795,138.792844 1.84455561,141.123513 1.18667134,143.389021 C0.933407635,144.322854 0.672469268,145.233723 0.419205559,146.244099 L0.258037744,147.009535 C0.204315139,147.353981 0.142917876,147.698428 0.0815206137,148.058183 C0.0060101406,148.608435 -0.0171169435,149.164581 0.012448693,149.71918 L0.012448693,150.660666 C0.012448693,150.660666 0.188965824,150.293257 0.373157612,149.89523 C0.373157612,149.795723 0.457578848,149.734488 0.503626795,149.604364 L0.657119952,149.221646 L0.77223982,148.785347 C0.810613109,149.711525 0.887359688,151.273015 0.964106266,152.888086 C1.04085284,154.380687 1.12527408,155.911559 1.17899669,156.921935 C0.918058319,157.411814 0.848986398,163.504687 0.327109665,159.034539 C0.282262321,162.320404 0.890007329,165.582622 2.11530494,168.633111 L2.88277073,170.554356 L3.3432502,171.664238 C3.54605135,172.294838 3.80281811,172.906888 4.11071598,173.493631 C4.5635208,174.259067 5.07772287,175.078084 5.64564755,176.03488 C6.08310305,176.800316 6.49753457,177.688222 6.98871268,178.729215 C6.43884738,177.377635 5.81629603,176.056615 5.12377082,174.77191 C4.9088804,174.366228 4.70166464,174.006473 4.47909956,173.570175 C4.2084481,173.075259 4.00212911,172.547964 3.86512693,172.00103 C3.65791117,171.304483 3.57348993,171.074852 3.45069541,170.577319 C3.32790088,170.079785 3.18975704,169.635832 3.07463717,169.100027 C4.67096601,173.654373 3.55814062,169.72003 4.16443859,170.118057 C4.21138267,170.588428 4.29607542,171.054286 4.4177023,171.511151 C4.51747285,171.886215 4.62491806,172.276587 4.74003793,172.674614 C4.89931475,173.06501 5.08125644,173.445822 5.28493863,173.815114 L6.53590786,176.256856 C7.12685652,177.550443 7.34174694,178.055631 6.02170579,176.073151 C7.34942159,178.568474 9.53669908,184.003071 10.2734662,185.258387 L9.92043197,183.987763 L9.5520484,182.740102 C11.1483772,186.705062 12.9519218,190.715948 14.0340486,192.285092 C12.1537574,187.08778 11.4323396,187.501115 8.9687744,181.201575 C6.48218526,174.373883 10.1583464,182.587014 8.83830522,177.933162 L7.47221612,175.728705 C6.70475034,174.626477 6.09845237,173.738571 5.93728455,173.355852 L7.14988049,175.751668 C6.71557952,175.418433 6.37245198,174.981445 6.15217497,174.481044 C6.03970311,174.302903 5.93221641,174.12168 5.82983934,173.937584 L5.21586671,172.827701 C4.93177504,172.115832 4.68332149,171.390325 4.4714249,170.653862 C3.84977762,168.357553 3.51976733,166.390382 3.15138375,166.826681 C2.91346936,163.581231 2.85974675,161.621714 2.7599762,159.577999 C2.65744786,157.145093 2.71898379,154.708066 2.94416799,152.283391 C2.64485633,150.752519 2.63718168,153.102408 2.63718168,154.924146 C2.60747879,153.780264 2.48168562,152.640877 2.26112344,151.517955 C2.17393556,150.973602 2.1277584,150.4235 2.1229796,149.872267 C2.0946382,149.293741 2.12808323,148.71385 2.22275015,148.142381 C2.34554468,147.476451 2.42229126,147.200894 2.56810976,146.611508 C2.76765086,145.547552 2.64485633,145.363847 2.40694194,145.914961 C2.22501873,146.358012 2.08373857,146.816599 1.98483576,147.285092 C1.86334614,147.768249 1.77615065,148.259345 1.72389739,148.75473 L1.72389739,150.446344 L1.72389739,148.915471 C1.72389739,148.150035 1.87739055,147.568304 1.90041452,147.231512 C2.00785973,146.466075 2.10763029,145.624095 2.20740084,144.805079 C2.42229126,143.182354 2.59880839,141.498394 2.97486662,139.730236 L2.39159263,141.506048 C2.21362142,142.105213 2.03710377,142.704807 1.86204123,143.304823 L2.1229796,141.406541 C2.28414742,140.4574 2.43764057,139.515914 2.43764057,139.515914 L2.00785973,141.046786 C1.81599329,141.812223 1.6318015,142.623585 1.6318015,142.623585 C2.62183236,135.359595 4.53282217,127.146463 6.23659621,123.625456 C5.66099687,126.763745 4.9088804,130.866484 4.21816119,134.663048 C3.66558583,138.490229 3.1974317,141.995927 3.45069541,143.848283 C3.85745227,142.50877 3.58116459,138.781095 4.67864066,137.120098 L4.50979819,135.137618 C4.77841122,132.940816 5.66867153,127.881282 6.29031881,127.575107 C5.6639253,131.112352 5.36336068,134.699341 5.39238384,138.291216 C5.49982905,138.329487 5.45378111,138.880602 5.33098658,139.745545 L5.33098658,139.837397 L5.33098658,139.783816 C5.03167493,141.567283 4.6172434,144.483595 4.51747285,146.159901 C4.11839064,148.241888 4.02629475,146.756941 3.94954817,146.519656 C3.85745227,146.963609 3.76535638,147.399908 3.67326049,147.828552 C3.5372356,148.444027 3.47794779,149.073901 3.49674336,149.703871 L3.49674336,152.145613 C3.57348993,153.745375 3.72698309,155.29921 3.93419885,156.883663 L5.41540782,167.347178 C5.20819206,167.431376 5.41540782,169.061755 5.68402084,170.477812 C5.97565784,172.230661 6.85056883,173.738571 6.02170579,172.490909 C6.35171607,173.103259 6.65870239,173.68499 6.95033939,174.243759 L7.6026853,175.353641 C8.00176751,176.065497 8.37015109,176.708463 8.7692333,177.305504 C9.50533189,178.438121 10.2166845,179.586546 10.9027882,180.749967 C10.7799937,181.43886 13.128439,186.728025 11.9465416,184.929249 L12.9365725,186.613209 C13.2588145,187.188775 13.5837118,187.762859 13.9112541,188.335441 C14.5712746,190.937924 16.6894802,196.21178 16.5513364,197.283391 C17.6641617,200.115506 17.47997,197.857468 18.6541926,201.921935 C18.4930248,201.776502 18.5390727,202.113294 18.2704597,201.271314 C19.0098738,204.08555 20.0951058,206.797883 21.5014907,209.346667 C20.5421584,206.468627 21.2789256,208.665429 20.1354016,205.259237 C20.4270386,205.259237 22.1691859,208.849134 23.6043469,212.73755 C22.1538366,210.311117 22.4454736,211.390382 22.928977,212.806439 C23.4124805,214.222496 24.2106449,215.944728 23.4508538,214.827191 C23.9066926,215.815123 24.4191845,216.77606 24.9857853,217.705232 L25.8530217,219.236104 C26.2041621,219.738775 26.5860622,220.219362 26.9965457,220.675124 L30.1508301,224.310947 C32.2949663,226.767058 34.4082207,229.249817 36.4900974,231.758642 C38.9613373,235.256686 41.9237552,239.313498 45.561543,242.627838 C47.3315112,244.235178 49.2629487,245.656199 51.3252111,246.868355 C53.2208515,247.901694 54.9246256,248.66713 56.4749065,249.356023 L55.7074407,248.91207 L59.3759271,250.442942 C61.3790128,251.529862 59.0535915,251.101217 62.2615985,252.616781 C60.8878347,252.616781 56.8049168,249.80763 53.3436461,248.445153 C55.9607044,250.220966 54.60229,249.662197 53.0136358,248.96565 C51.4249816,248.269103 49.5063171,247.266381 51.3328857,248.644167 C54.1187865,248.705402 63.1211602,254.836546 68.2938796,256.727174 C72.8986743,259.283731 65.8917117,256.099516 68.1864343,257.370141 L69.8748591,257.791131 C71.6860783,258.847433 72.2463284,259.276077 72.0698112,259.498054 C76.9870352,262.238969 82.1581763,264.499847 87.5112228,266.249202 C81.808952,263.998819 89.6447777,266.547722 84.142048,264.060054 C85.8995447,264.618822 89.5143085,266.119078 92.9909285,267.519826 C89.5910551,266.325745 97.1045451,270.214162 89.7982708,266.938094 C90.5657366,267.986742 93.4897813,268.36946 96.7745348,269.7549 C94.9786649,269.318601 91.0799387,268.147484 91.4022743,268.354152 C94.0500313,268.974155 98.0101547,270.704041 101.670967,272.135407 C105.331778,273.566773 108.670254,274.768508 109.760056,274.791471 C113.70483,275.327276 119.675714,276.322343 124.503074,276.590246 C124.862779,276.703654 125.233037,276.780587 125.608224,276.819877 L126.513834,276.950001 L128.309704,277.164323 L132.016564,277.485807 C134.533851,277.677166 137.127886,277.837907 139.744944,278.090501 L138.793287,278.274206 C141.74803,278.626307 146.391198,278.687542 150.788777,279.039642 L151.748109,279.560139 C154.817972,279.560139 160.497219,279.651991 165.163411,279.621374 C165.209459,279.345817 160.91165,279.399397 162.945435,279.054951 C160.643037,279.054951 158.662976,279.054951 159.484164,279.399397 C157.181767,279.330508 157.089671,278.878901 155.201705,278.633961 L159.668356,278.588035 L164.142681,278.442602 C164.487004,278.422382 164.832253,278.461217 165.163411,278.557417 L165.808082,278.036921 C168.11048,277.975686 168.801199,278.082847 168.417466,278.304823 C170.40231,278.182491 172.376621,277.926765 174.326952,277.539387 C176.038401,277.233213 177.788223,277.026545 180.466679,276.773951 C178.088909,277.612053 175.596427,278.081868 173.075983,278.167045 L176.107473,277.952723 C177.642405,277.868525 179.138963,277.68482 179.138963,277.68482 C177.780548,278.121119 174.465096,278.389021 171.725243,278.718159 C168.985391,279.047297 166.798113,279.169766 167.711397,279.529521 C171.057548,279.292236 175.171165,278.871246 179.146638,278.235934 C182.73806,277.664833 186.290557,276.872364 189.783713,275.863082 C191.678499,275.701389 193.551096,275.342226 195.370864,274.791471 C197.458371,274.094924 199.799142,273.375414 202.278056,272.63294 C202.984125,272.510471 204.526731,272.097135 203.713217,272.671212 L202.354803,273.199363 C203.98183,272.617632 205.66258,272.012937 207.327981,271.331699 C208.993382,270.65046 210.597385,269.747246 212.193714,268.928229 C213.790043,268.109212 215.263577,267.060564 216.714088,266.149695 C217.473447,265.702371 218.192446,265.190158 218.862992,264.618822 C219.528188,264.051444 220.144334,263.429246 220.70491,262.758812 C221.178962,262.417783 221.634939,262.052434 222.070999,261.664238 C222.731019,261.082507 223.329643,260.43954 223.329643,260.43954 C224.175118,259.180919 224.851154,257.81698 225.340403,256.382728 C225.478547,255.923466 225.255982,256.084208 225.025742,256.221986 C224.795502,256.359765 224.557588,256.489889 224.665033,255.984701 C225.046264,254.642987 225.600938,253.356458 226.315085,252.157519 C227.397211,250.504177 235.17164,243.844881 235.785612,244.028586 C237.259147,242.819197 237.957541,242.314009 237.911493,241.854747 C236.499356,242.84216 233.613684,245.329828 235.018147,243.630559 C237.650554,241.33425 239.200835,240.607086 241.44951,238.946089 C241.357414,239.137448 239.914578,240.584123 240.751116,239.887576 C243.437246,237.767317 247.49714,234.927548 251.273072,231.66679 C255.049004,228.406031 258.326083,224.555887 259.861014,221.570685 L258.326083,223.866994 C257.690615,224.808101 256.931768,225.66019 256.069733,226.400588 C255.900891,226.155648 257.174884,224.915642 257.543267,224.257366 C256.890921,224.257366 255.501808,227.089481 252.616137,229.102578 L253.237784,228.436649 L254.534802,226.905776 C255.018305,226.362316 255.448086,225.77293 255.778096,225.374903 L256.322997,224.655393 C258.564744,222.244091 260.524149,219.586244 262.163411,216.733128 C262.163411,216.733128 269.584806,208.275056 269.584806,204.042194 C275.947097,182.893189 280.191183,163.856788 282.309388,144.820387 C282.223861,141.736564 281.887632,138.664743 281.304008,135.635152 C282.470358,139.881661 282.811615,144.311468 282.309388,148.685841 C282.232642,148.479173 282.255666,147.920404 282.125196,148.80831 C281.273309,154.510811 281.902631,156.937244 280.659337,161.438009 L280.444446,160.810352 C280.444446,161.200724 280.198857,163.94864 280.643988,163.47407 C281.211912,159.646888 281.173539,158.881452 281.810536,155.444643 C281.819741,157.727894 281.627129,160.007511 281.234936,162.257026 L281.741464,162.601473 C281.810536,165.609637 280.390724,168.395825 280.375375,171.373372 L281.426803,168.074342 C281.426803,168.173849 281.388429,168.441751 281.365405,168.663728 C281.584933,167.590029 281.705671,166.498575 281.726114,165.402969 C282.370786,160.251583 283.552683,157.748606 283.982464,156.98317 C284.550388,154.602663 284.550388,157.955274 284.934121,157.748606 C285.417625,153.844881 284.772953,153.98266 285.172036,150.094243 C285.371577,149.152757 285.440649,149.405351 285.448323,149.818686 L285.448323,147.269783 C285.567897,146.929621 285.652748,146.578292 285.701587,146.221136 L285.901128,145.050018 C285.901128,144.629028 285.901128,144.200384 285.947176,143.810011 C285.993224,142.501115 286.08532,141.728025 286.384632,143.917172 C286.406924,144.45579 286.394106,144.995283 286.346258,145.532243 C286.284861,146.022122 286.215789,146.550273 286.162067,147.009535 C286.223464,146.672743 286.292536,146.320642 286.361608,145.953233 C286.479356,145.410205 286.533441,144.85537 286.522775,144.299891 C286.561149,143.394529 286.561149,142.487954 286.522775,141.582592 C286.515101,139.730236 286.369282,137.954424 286.277186,136.423551 L286.277186,136.423551 Z M245.778017,49.0643063 C245.542065,48.9735839 245.325806,48.8384548 245.14102,48.6662794 C247.335972,50.7176487 248.479496,51.8811119 249.507901,52.9450684 C250.536305,54.0090248 251.541685,54.8892765 253.138014,56.6650888 L251.948442,55.7618739 C252.155658,56.7033606 255.164123,59.2139916 257.589315,62.2451194 C258.471901,63.0105557 260.290795,64.7787135 260.927792,66.2177338 L260.321494,65.9345223 C260.751945,66.863244 261.284782,67.7412549 261.910148,68.5523145 C262.347603,69.2029353 262.915528,69.9454085 263.445079,70.7797341 C263.682994,71.7441838 263.928583,72.7775228 264.212545,73.8414793 L263.667644,72.6780161 C263.514151,72.0656671 263.352983,71.4533181 263.21484,70.8333147 C255.844443,60.2861573 247.06552,50.7913648 237.121003,42.6116783 C240.052134,44.7012097 242.938456,46.8525704 245.778017,49.0643063 L245.778017,49.0643063 Z M171.080572,10.340884 C173.336922,10.5628605 176.230268,10.6623672 179.860381,11.1981726 L179.637816,11.2440988 L183.344675,12.2085485 L187.013162,13.3184312 L186.046155,13.272505 L188.256456,13.7470755 C188.995859,13.8979357 189.730417,14.0715172 190.459083,14.2675722 C190.175121,14.7574514 191.671679,14.9870823 191.295621,15.2626394 C193.598018,17.0843778 200.789173,18.4009282 206.12306,21.4703277 L205.163728,21.3095861 C206.790755,21.7152674 209.323392,23.0930527 212.07092,24.5703448 C214.749375,26.177761 217.619697,27.907647 219.791625,29.3925934 L219.576735,29.3925934 C217.435506,28.2520934 216.506872,27.9994994 216.660365,28.3439457 C214.506344,27.098836 212.316509,25.9022039 210.090858,24.7540495 C209.808538,24.4797187 209.50859,24.2240313 209.192923,23.9886132 C208.341036,23.6824387 207.327981,23.2231769 206.291902,22.7715695 L205.747002,22.5419386 C202.359919,20.9192136 198.919114,19.4215099 195.424587,18.0488275 C196.044896,18.1471996 196.659689,18.2774978 197.266505,18.4392 L195.102251,17.6048744 L190.282566,15.9591864 C188.540419,15.3238743 186.736874,14.8722669 185.409158,14.4283138 L183.191182,13.7700386 C179.062216,12.5351347 174.892319,11.4788326 170.68149,10.6011323 C171.157319,10.6240954 171.034524,10.532243 171.080572,10.340884 L171.080572,10.340884 Z M105.28573,10.6776759 L105.807607,11.0680484 C114.871378,8.86359191 121.272043,6.41419575 131.034207,5.87839034 C129.729516,6.44481321 126.038005,6.47543066 126.567557,6.69740718 C132.377273,6.32999776 131.510036,4.96752115 137.312078,5.45740038 C129.092519,5.89369907 142.431074,5.53394401 135.048054,6.22283668 C145.347444,4.94455806 156.291506,6.98827298 162.93776,7.89914217 C161.295383,7.34037367 165.75436,7.79198109 165.953901,7.77667237 C167.688373,8.15173615 167.043702,8.35840395 165.63924,8.11346434 C169.016089,9.03964226 169.522617,9.5677933 168.877945,9.86631346 L165.393651,9.24631006 C163.659178,8.9477899 161.901681,8.74877646 161.901681,8.74877646 C162.913827,8.94403922 163.913325,9.19964314 164.894798,9.51421276 C161.331406,8.92586035 157.747461,8.46883915 154.150277,8.14408179 C153.490256,7.98334017 153.152571,7.83790727 153.474907,7.75370928 C151.05739,7.66951128 147.504023,7.11074279 146.191657,7.11839715 C148.724294,7.5011153 148.179393,7.57765893 146.759581,7.64654819 C145.470239,7.59296765 144.180896,7.57765893 142.922252,7.5623502 C142.922252,7.4169173 143.689718,7.27148441 142.323629,7.17963205 L139.499355,7.17963205 L136.621358,7.36333676 L139.077249,7.32506495 C140.305194,7.32506495 141.533139,7.36333676 141.533139,7.36333676 L140.949865,7.58531329 C129.059026,7.58532313 117.222642,9.18679797 105.761559,12.3463271 C103.783917,12.6219915 101.78307,12.693811 99.7906754,12.5606492 C101.701665,11.8105217 103.62033,11.1981726 105.28573,10.6776759 L105.28573,10.6776759 Z M77.4113731,25.7414623 L79.4374828,24.0039219 L79.0077019,24.3100964 C80.4118763,23.2049279 81.7592144,22.0297632 83.0445719,20.7890894 C83.7045925,20.7890894 84.0806508,20.8885962 83.8120377,21.286623 L83.2287637,21.8224284 L83.1520172,21.876009 C81.3823235,23.4199726 79.5272642,24.8638081 77.5955649,26.2007241 C77.0046162,26.4686268 76.1911025,26.9049255 75.2931675,27.4101134 L77.4113731,25.7414623 Z M71.6323557,29.7293854 L75.0245545,27.8923383 C73.2977565,28.9869122 71.647705,29.9437076 70.235568,30.647909 L69.6983419,31.1607513 C70.1791177,30.495667 70.8548025,29.9955919 71.6323557,29.7293854 L71.6323557,29.7293854 Z M42.3074881,55.6317498 L41.6321182,56.1981726 C42.7679676,54.4376691 43.2130977,52.7766724 44.2338272,51.9423468 C44.1647553,52.1413602 42.6144744,56.3971861 41.2483853,60.1554783 L39.6136832,63.0947537 C38.7464468,63.8066094 35.8991488,67.7332976 32.7064911,72.463694 C35.6382104,66.9448983 38.9766866,61.2730153 42.3074881,55.6317498 Z M19.790042,89.8161349 C19.8539805,89.6236534 19.8851106,89.4218428 19.8821379,89.2190945 C20.2735454,88.4536582 20.4577372,87.9025441 20.6496036,87.8336548 L19.7593433,90.0381114 L19.790042,89.8161349 Z M16.4899391,113.797254 L16.3824939,114.164664 C16.166799,114.892738 15.9105796,115.608255 15.6150281,116.307885 C15.9066651,115.442942 16.1983021,114.623925 16.4899391,113.797254 L16.4899391,113.797254 Z M11.8160725,128.899312 C12.5298156,126.419299 13.128439,124.00052 13.8728808,121.711865 C13.4814732,123.434097 13.1898362,125.232872 12.5912129,127.29955 C12.7830794,126.779054 12.9749458,126.212631 13.1591376,125.638554 C12.1358499,129.623925 11.2379149,133.688392 10.4653327,137.831954 C10.6158717,135.701354 10.9548749,133.588187 11.4783875,131.517104 C11.4093156,131.838588 10.7109217,134.287984 9.94345595,137.916152 L9.94345595,136.660836 C10.5420793,133.981809 11.1944252,131.394635 11.8160725,128.899312 L11.8160725,128.899312 Z M99.3071719,266.968712 L100.542792,267.121799 C101.471425,267.466245 102.407734,267.803037 103.344042,268.132175 C103.152176,268.31588 102.852864,268.583782 99.3071719,266.968712 Z M105.047816,268.706252 L107.488357,269.471689 C106.870191,269.377127 106.261552,269.228571 105.669463,269.027735 L105.047816,268.706252 Z M281.227262,135.275397 C281.14284,134.731937 281.050744,134.188477 280.966323,133.645017 C281.234936,134.716628 281.480525,135.642806 281.657042,136.400588 L281.227262,135.275397 Z" id="Shape" fill="#5984D6"></path>
            <path d="M64.1188657,257.61508 C65.9890911,258.38271 67.7869635,259.315132 69.4911262,260.401268 C70.1664961,260.401268 68.2862049,259.107681 68.7236604,258.870396 C63.013715,255.425932 61.3866875,256.306184 55.7995366,253.022462 C56.2062934,252.800486 58.1019339,253.466416 54.3643756,251.49159 L55.3620811,251.935543 C53.5537195,251.172799 51.8492372,250.185219 50.2891322,248.996268 C49.0843906,248.048231 47.7511136,247.275119 46.3290088,246.699959 L46.774139,246.340204 C43.5507827,244.602663 38.9306386,239.497203 36.8508064,236.64978 L37.0656968,236.756941 C35.3565452,234.799791 33.7699981,232.73941 32.3150836,230.587525 C31.4938952,229.38579 30.6650321,227.931461 27.6258676,223.928229 L29.2375458,225.627497 L30.8568986,227.388001 C29.0610286,224.326256 28.0249498,224.104279 26.6051381,222.083527 C26.7586313,222.144762 26.7970046,221.693155 27.6028437,222.52748 C27.4263265,222.328467 27.2344601,222.098836 26.9965457,221.838588 L26.3825731,221.165004 L26.0448881,220.797594 C25.845347,220.567963 25.6381312,220.330678 25.4385901,220.085739 C24.6711244,218.952893 24.3104154,218.317581 23.8115627,217.582762 C21.9542955,214.643486 20.3886653,211.59705 20.3886653,211.59705 C18.6925659,208.77259 20.2658708,212.362486 20.2658708,212.936564 C19.3756104,211.964459 17.3878741,206.415046 17.6411378,206.047637 C18.04022,206.728875 19.3449118,209.61457 18.8076858,207.68567 L16.3824939,203.713056 C14.8859356,197.84216 18.9458296,207.639744 20.5268091,210.326426 C18.2781344,204.50911 17.165309,202.955274 15.1085007,196.900673 C15.4909285,198.220123 15.775657,199.565809 15.9603877,200.926868 C15.4231617,201.340204 13.7654356,195.530542 12.4070211,191.657434 C12.9979698,194.236955 12.2842266,192.866824 11.4323396,191.136938 C11.346387,190.906317 11.2357436,190.685615 11.1023293,190.478662 C11.0025587,190.279649 10.9104628,190.08829 10.8106923,189.896931 L10.9718601,190.356193 C10.8951135,190.356193 10.8490656,190.478662 10.8567402,190.853726 C12.1460827,194.030287 12.499117,196.793512 13.2282095,198.975005 C13.3433294,197.734999 13.9956753,199.572046 14.8629116,202.082677 C15.6065836,204.503164 16.4932786,206.877619 17.5183432,209.19358 L18.2244118,210.816305 C18.5697714,211.620013 18.9918775,212.431376 18.9918775,212.431376 L19.5444529,213.656074 C19.5444529,213.946939 19.2681652,213.656074 18.2474357,211.864953 C19.0609495,213.395825 21.5245146,218.593138 21.6242852,217.988443 L22.6143161,219.817836 L23.3050353,221.073151 C23.4771344,221.338649 23.6641844,221.594205 23.8652853,221.838588 L24.3564634,222.466245 C24.7478709,222.979088 25.1776518,223.499584 25.5844086,224.066007 C27.2421347,226.262809 28.8768369,228.658625 28.8768369,228.658625 C29.0402557,228.951255 29.1813564,229.255738 29.298943,229.569494 C29.5829054,229.875669 29.659652,229.898632 29.6750013,229.829743 L30.9336452,231.674444 C31.7011109,232.86087 32.9137069,234.598411 34.4409638,236.726324 C37.5108269,240.928569 42.422608,247.166875 49.7442315,251.269613 L58.3398483,255.885194 L65.8303144,259.8425 C70.235568,262.138809 73.2363592,263.608446 73.2363592,263.608446 C70.9339619,262.376094 69.0076227,261.120779 66.6591774,259.781265 C70.5195303,261.059544 62.7681259,257.630389 64.1188657,257.61508 L64.1188657,257.61508 Z" id="Path" fill="#5984D6"></path>
            <path d="M15.0854767,196.847093 C14.870187,196.088305 14.6269918,195.33767 14.3563842,194.59671 C14.5942986,195.43869 14.8629116,196.1582 15.0854767,196.847093 L15.0854767,196.847093 Z M76.5748354,265.269443 L73.2056606,263.608446 C74.3064081,264.206034 75.4303383,264.760129 76.5748354,265.269443 L76.5748354,265.269443 Z M10.166021,186.230491 C10.166021,186.230491 9.62879498,184.768508 9.03784632,183.375414 C8.44689767,181.98232 7.84827435,180.604534 7.84827435,180.604534 C8.40852438,182.587014 6.85824349,179.364527 6.52055855,179.142551 C6.52055855,179.142551 7.28802433,180.780585 7.9864182,182.479853 C8.68481206,184.179122 9.36018195,185.962588 9.36018195,185.962588 C9.54437374,185.82481 10.0355518,186.437159 10.166021,186.230491 Z M9.73624019,188.121119 C10.1466127,188.650868 10.4894765,189.229367 10.7569697,189.84335 L9.36018195,185.962588 C9.22203811,186.023823 9.22203811,186.483085 9.73624019,188.121119 L9.73624019,188.121119 Z M103.236597,273.987763 L104.95572,274.531222 C104.386253,274.339011 103.813104,274.157824 103.236597,273.987763 L103.236597,273.987763 Z" id="Shape" fill="#5984D6"></path>
            <path d="M125.201467,280.677676 C124.861496,280.607554 124.525822,280.518107 124.196087,280.409773 C123.776274,280.30253 123.382239,280.112539 123.037214,279.851005 C122.960467,279.720881 123.037214,279.606065 124.257485,279.682609 C118.194505,278.756431 110.143789,276.146293 108.639556,276.29938 C108.785374,276.238145 108.785374,276.100367 107.941162,275.778884 L104.318723,275.319622 L107.54208,276.529011 C104.484878,275.968009 101.488388,275.117063 98.5934287,273.987763 C96.0382167,273.095202 93.5547096,272.010262 91.1643599,270.742313 C97.3808328,272.969732 94.5181854,271.14034 103.06008,274.569494 C102.730069,274.248011 101.24886,273.383068 103.236597,273.949491 C92.9525552,270.711695 84.3415891,266.486487 74.2417394,262.215352 C81.7015068,266.616611 68.9462255,260.171637 71.0183831,262.085228 L75.3468901,263.945238 L74.8940853,263.945238 L80.1128526,266.379326 C79.1995684,265.537346 78.4090786,265.139319 78.8081608,264.902034 C85.7153529,268.308225 80.8035718,266.348708 85.7153529,269.150205 L89.7138496,270.834165 L93.766069,272.433927 L93.0676751,272.28084 C93.4688748,272.460481 93.8920685,272.586589 94.326319,272.655904 C94.326319,272.655904 101.179788,275.327276 108.347919,277.348028 C113.14187,278.726601 118.010289,279.833154 122.929769,280.662367 L123.850728,280.777183 C124.157797,280.826816 124.468289,280.852408 124.779361,280.853726 C125.354961,280.853726 125.439382,280.815454 125.454731,280.769528 C125.470081,280.723602 125.48543,280.738911 125.201467,280.677676 L125.201467,280.677676 Z M178.594062,281.05274 C178.785929,280.999159 178.847326,280.960887 178.678483,280.976196 L178.594062,281.05274 Z M173.889497,281.642126 L175.040696,281.198173 L172.431312,281.764595 L169.821928,282.239166 C169.821928,282.239166 171.863387,282.200894 173.92787,282.009535 L178.064511,281.642126 L178.609411,281.05274 C177.067655,281.448672 175.481536,281.646734 173.889497,281.642126 L173.889497,281.642126 Z M164.158031,281.557928 L163.720575,282.79028 C167.949312,282.560649 167.703723,281.864102 165.401325,281.64978 C169.238654,281.274716 167.465808,282.269783 170.113565,281.52731 C170.00612,281.075703 165.240157,281.52731 164.158031,281.557928 L164.158031,281.557928 Z M61.7763896,235.698938 L63.072554,235.503327 L59.9429991,235.188647 L61.7763896,235.698938 L61.7763896,235.698938 Z M134.318961,280.876689 L137.120211,281.159901 C136.925424,280.898558 136.65884,280.699148 136.352745,280.585824 L134.318961,280.876689 Z M148.647547,282.147314 L144.495557,281.802867 C145.700479,281.917683 147.02052,282.055461 148.647547,282.147314 Z M141.348948,281.52731 L144.495557,281.802867 L141.264526,281.435458 L141.348948,281.52731 Z" id="Shape" fill="#5984D6"></path>
            <path d="M142.108739,282.254475 L141.341273,281.52731 L137.074163,281.121629 C137.511619,281.588545 138.010471,282.086079 142.108739,282.254475 Z M156.337554,282.606575 C156.260808,282.882132 158.463435,282.774971 159.560911,282.721391 C158.67065,282.675465 157.412006,282.552995 156.337554,282.606575 Z M232.439462,251.644677 C231.958827,251.920172 231.510868,252.248834 231.104071,252.624436 L232.439462,251.644677 Z" id="Shape" fill="#5984D6"></path>
            <path d="M42.08,151.836056 C42.08,159.610704 45.2098701,163.16 51.0280519,163.16 C55.5864935,163.16 58.8722078,161.71688 61.08,159.948732 L59.054026,152.512113 C57.8722078,153.357183 56.5994805,154.033239 55.08,154.033239 C52.8072727,154.033239 51.7812987,152.174085 51.7812987,147.857725 L51.7812987,103.16 L42.08,103.16 L42.08,151.836056 Z M68.08,163.16 L78.08,163.16 L78.08,124.16 L68.08,124.16 L68.08,163.16 Z M67.08,109.940731 C67.08,113.914153 69.9562542,116.16 73.3408696,116.16 C76.2171237,116.16 79.08,113.914153 79.08,109.940731 C79.08,106.392558 76.2171237,104.16 73.3408696,104.16 C69.9562542,104.16 67.08,106.392558 67.08,109.940731 L67.08,109.940731 Z M119.073311,180.16 L129.08,180.16 L129.08,127.803855 C124.906087,125.216564 118.203746,123.16 111.514783,123.16 C98.2973913,123.16 89.08,132.208883 89.08,143.500084 C89.08,155.746592 96.906087,163.866704 109.427826,163.866704 C112.558261,163.866704 116.116789,162.81852 119.073311,160.921173 L119.073311,180.16 Z M110.876951,155.16 C104.280277,155.16 100.08,150.61781 100.08,144.54839 C100.08,138.478971 104.030104,133.16 111.548468,133.16 C114.287207,133.16 116.775773,133.93678 119.08,135.042705 L119.08,151.64474 C117.197117,153.6986 113.944865,155.16 110.876951,155.16 Z M174.08,125.16 L164.156753,125.16 L164.156753,151.105946 C161.911734,154.042216 158.710258,155.870711 155.429077,155.870711 C149.995867,155.870711 148.003247,152.13364 148.003247,146.928435 L148.003247,125.16 L138.08,125.16 L138.08,149.010517 C138.08,160.208382 144.12428,165.16 151.722804,165.16 C157.767085,165.16 161.818745,162.290464 164.156753,159.420928 L164.156753,164.199039 L174.08,164.199039 L174.08,125.16 Z M186.08,163.16 L196.08,163.16 L196.08,124.16 L186.08,124.16 L186.08,163.16 Z M185.08,109.940731 C185.08,113.914153 187.942876,116.16 191.34087,116.16 C194.203746,116.16 197.08,113.914153 197.08,109.940731 C197.08,106.392558 194.203746,104.16 191.34087,104.16 C187.942876,104.16 185.08,106.392558 185.08,109.940731 Z M234.995626,162.482034 L245.08,162.482034 L245.08,103.16 L234.995626,103.16 L234.995626,125.272125 C232.808653,124.007458 230.257185,123.420756 226.747229,123.420756 C214.030388,123.420756 205.08,131.804068 205.08,143.837966 C205.08,155.441617 212.356409,163.16 223.682767,163.16 C228.758704,163.16 232.363159,161.204329 234.995626,158.492464 L234.995626,162.482034 Z M226.935328,155.16 C221.61211,155.16 217.08,151.269025 217.08,144.339891 C217.08,137.144252 222.403218,133.16 228.329824,133.16 C231.024954,133.16 233.559181,133.94619 236.08,135.505245 L236.08,151.175748 C233.813945,153.427717 230.595879,155.16 226.935328,155.16 L226.935328,155.16 Z" id="SvgjsPath147800" fill="#FFFFFF"></path>
        </g>
    </g>
</svg>